<?xml version="1.0" encoding="UTF-8"?>
<svg width="40px" height="40px" viewBox="0 0 40 40" version="1.1" xmlns="http://www.w3.org/2000/svg" xmlns:xlink="http://www.w3.org/1999/xlink">
    <!-- Generator: Sketch 53.1 (72631) - https://sketchapp.com -->
    <title>Flat White Copy</title>
    <desc>Created with Sketch.</desc>
    <g id="Flat-White-Copy" stroke="none" stroke-width="1" fill="none" fill-rule="evenodd">
        <g id="Group-Copy" fill="#FFFFFF">
            <path d="M0.00579885055,20.37 C0.00194026805,20.2088011 -1.0658141e-14,20.0471272 -1.0658141e-14,19.885 C-1.0658141e-14,8.90281775 8.90281775,-1.0658141e-14 19.885,-1.0658141e-14 C30.8671822,-1.0658141e-14 39.77,8.90281775 39.77,19.885 C39.77,30.7050551 31.128102,39.5066868 20.37,39.7642011 L20.37,39.77 L3.88,39.77 C1.73713517,39.77 -1.0839805e-14,38.0328648 -1.11022302e-14,35.89 L-1.0658141e-14,20.37 L0.00579885055,20.37 Z M26.2565371,24.2826651 C25.7820585,24.8184871 25.3822148,25.2312632 25.057,25.521 C24.580331,25.9456688 24.1686684,26.158 23.822,26.158 C23.3193308,26.158 23.068,25.8113368 23.068,25.118 C23.068,24.6326642 23.232665,23.6360075 23.562,22.128 C23.9433352,20.3599912 24.134,19.1380034 24.134,18.462 C24.134,17.3353277 23.5706723,16.772 22.444,16.772 C21.5253287,16.772 20.5373386,17.2573285 19.48,18.228 C18.4226614,19.1986715 17.460671,20.7499893 16.594,22.882 C16.6460003,22.5699984 16.7413326,22.1020031 16.88,21.478 C17.209335,20.0219927 17.374,19.0166694 17.374,18.462 C17.374,17.8899971 17.2483346,17.4653347 16.997,17.188 C16.7456654,16.9106653 16.3166697,16.772 15.71,16.772 C15.1033303,16.772 14.4576701,17.0016644 13.773,17.461 C13.0883299,17.9203356 12.4210033,18.6179953 11.771,19.554 C11.1209968,20.4900047 10.5620023,21.6339932 10.094,22.986 C10.1633337,22.2233295 10.2499995,21.5863359 10.354,21.075 C10.4580005,20.5636641 10.5966658,19.9613368 10.77,19.268 C11.0300013,18.2973285 11.16,17.6733347 11.16,17.396 C11.16,17.1533321 11.0906674,16.9886671 10.952,16.902 C10.8133326,16.8153329 10.5706684,16.772 10.224,16.772 C9.58266346,16.772 9.08433511,16.8889988 8.729,17.123 C8.37366489,17.3570012 8.11800078,17.7253308 7.962,18.228 C7.32066346,20.2560101 7,22.3966554 7,24.65 C7,26.175341 7.13433199,27.2846632 7.403,27.978 C7.67166801,28.6713368 8.13533004,29.018 8.794,29.018 C9.33133602,29.018 9.72566541,28.8750014 9.977,28.589 C10.2283346,28.3029986 10.4493324,27.7526707 10.64,26.938 C10.8653345,26.0019953 11.1643315,25.0486715 11.537,24.078 C11.9096685,23.1073285 12.2953313,22.3100031 12.694,21.686 C13.0926687,21.0619969 13.4219987,20.75 13.682,20.75 C13.8726676,20.75 13.968,20.8886653 13.968,21.166 C13.968,21.5126684 13.8986674,22.2406611 13.76,23.35 C13.5866658,24.5980062 13.5,25.55133 13.5,26.21 C13.5,26.9900039 13.6429986,27.6529973 13.929,28.199 C14.2150014,28.7450027 14.6439971,29.018 15.216,29.018 C15.7706694,29.018 16.1736654,28.8793347 16.425,28.602 C16.6763346,28.3246653 16.8973324,27.7700042 17.088,26.938 C17.3480013,25.8806614 17.6859979,24.8753381 18.102,23.922 C18.5180021,22.9686619 18.9339979,22.2016696 19.35,21.621 C19.7660021,21.0403304 20.0866655,20.75 20.312,20.75 C20.5026676,20.75 20.598,20.8886653 20.598,21.166 C20.598,21.5820021 20.4853345,22.3359945 20.26,23.428 C20.0173321,24.6760062 19.896,25.5426642 19.896,26.028 C19.896,26.9986715 20.1213311,27.7396641 20.572,28.251 C21.0226689,28.7623359 21.6899956,29.018 22.574,29.018 C23.6660055,29.018 24.6409957,28.7233363 25.499,28.134 C25.6458376,28.0331418 25.791025,27.9274611 25.9345622,27.8169578 C25.9603529,28.1996667 26.0621648,28.4873452 26.24,28.68 C26.448001,28.9053345 26.8293306,29.018 27.384,29.018 C28.0080031,29.018 28.4673319,28.9053345 28.762,28.68 C29.0566681,28.4546655 29.2213332,28.0646694 29.256,27.51 C29.4120008,24.9966541 29.8799961,21.8853519 30.66,18.176 C30.6946668,17.9333321 30.712,17.7686671 30.712,17.682 C30.712,17.0753303 30.3393371,16.772 29.594,16.772 C28.8833298,16.772 28.3676683,16.8803323 28.047,17.097 C27.7263317,17.3136678 27.4966674,17.690664 27.358,18.228 C26.8966719,20.0982489 26.5295193,22.1164599 26.2565371,24.2826651 Z M29.88,15.056 C30.6253371,15.056 31.2233311,14.8523354 31.674,14.445 C32.1246689,14.0376646 32.35,13.4873368 32.35,12.794 C32.35,12.2219971 32.1506687,11.7800016 31.752,11.468 C31.3533313,11.1559984 30.8333365,11 30.192,11 C29.4813298,11 28.887669,11.2036646 28.411,11.611 C27.9343309,12.0183354 27.696,12.5253303 27.696,13.132 C27.696,13.7386697 27.8779982,14.2109983 28.242,14.549 C28.6060018,14.8870017 29.1519964,15.056 29.88,15.056 Z" id="Combined-Shape"></path>
        </g>
    </g>
</svg>