<?xml version="1.0" encoding="UTF-8"?>
<svg width="4608px" height="7610px" viewBox="0 0 4608 7610" version="1.1" xmlns="http://www.w3.org/2000/svg" xmlns:xlink="http://www.w3.org/1999/xlink">
    <!-- Generator: Sketch 53.1 (72631) - https://sketchapp.com -->
    <title>Group 13</title>
    <desc>Created with Sketch.</desc>
    <g id="Page-1" stroke="none" stroke-width="1" fill="none" fill-rule="evenodd">
        <g id="Group-13">
            <rect id="Rectangle" fill="#7B3BB9" x="0" y="1466" width="1536" height="1606"></rect>
            <rect id="Rectangle-Copy" fill="#F3B426" x="1536" y="1466" width="1536" height="1606"></rect>
            <g id="Group" transform="translate(0.000000, 3072.000000)">
                <rect id="Rectangle-Copy-2" fill="#F75643" x="0" y="0" width="1536" height="1466"></rect>
                <rect id="Rectangle-Copy-3" fill="#260449" x="1536" y="0" width="1536" height="1466"></rect>
            </g>
            <g id="Group-5" transform="translate(424.000000, 3468.000000)" fill="#F3B426">
                <ellipse id="Oval" cx="343.075623" cy="336.628706" rx="343.075623" ry="336.628706"></ellipse>
                <path d="M-5.68434189e-14,353.460141 L343.075623,353.460141 L343.075623,673.257411 L150,673.257411 C67.1572875,673.257411 -5.17707657e-14,606.100124 -5.68434189e-14,523.257411 L-5.68434189e-14,353.460141 Z" id="Rectangle"></path>
            </g>
            <g id="Group-5" transform="translate(1960.000000, 3468.000000)" fill="#7B3BB9">
                <ellipse id="Oval" cx="343.075623" cy="336.628706" rx="343.075623" ry="336.628706"></ellipse>
                <path d="M-5.68434189e-14,353.460141 L343.075623,353.460141 L343.075623,673.257411 L150,673.257411 C67.1572875,673.257411 -5.17707657e-14,606.100124 -5.68434189e-14,523.257411 L-5.68434189e-14,353.460141 Z" id="Rectangle"></path>
            </g>
            <rect id="Rectangle" fill="#7B3BB9" x="3072" y="1466" width="1536" height="1606"></rect>
            <g id="Group" transform="translate(3072.000000, 3072.000000)" fill="#F75643">
                <rect id="Rectangle-Copy-2" x="0" y="0" width="1536" height="1466"></rect>
            </g>
            <g id="Group-5" transform="translate(3496.000000, 3468.000000)" fill="#F3B426">
                <ellipse id="Oval" cx="343.075623" cy="336.628706" rx="343.075623" ry="336.628706"></ellipse>
                <path d="M-5.68434189e-14,353.460141 L343.075623,353.460141 L343.075623,673.257411 L150,673.257411 C67.1572875,673.257411 -5.17707657e-14,606.100124 -5.68434189e-14,523.257411 L-5.68434189e-14,353.460141 Z" id="Rectangle"></path>
            </g>
            <rect id="Rectangle-Copy-4" fill="#7B3BB9" x="0" y="4538" width="1536" height="1606"></rect>
            <rect id="Rectangle-Copy-7" fill="#7B3BB9" x="3072" y="4538" width="1536" height="1606"></rect>
            <rect id="Rectangle-Copy-5" fill="#F3B426" x="1536" y="4538" width="1536" height="1606"></rect>
            <g id="Group-5-Copy" transform="translate(424.000000, 5004.000000)" fill="#260449">
                <ellipse id="Oval" cx="343.075623" cy="336.628706" rx="343.075623" ry="336.628706"></ellipse>
                <path d="M-5.68434189e-14,353.460141 L343.075623,353.460141 L343.075623,673.257411 L150,673.257411 C67.1572875,673.257411 -5.17707657e-14,606.100124 -5.68434189e-14,523.257411 L-5.68434189e-14,353.460141 Z" id="Rectangle"></path>
            </g>
            <g id="Group-5-Copy-5" transform="translate(3496.000000, 5004.000000)" fill="#260449">
                <ellipse id="Oval" cx="343.075623" cy="336.628706" rx="343.075623" ry="336.628706"></ellipse>
                <path d="M-5.68434189e-14,353.460141 L343.075623,353.460141 L343.075623,673.257411 L150,673.257411 C67.1572875,673.257411 -5.17707657e-14,606.100124 -5.68434189e-14,523.257411 L-5.68434189e-14,353.460141 Z" id="Rectangle"></path>
            </g>
            <g id="Group-5-Copy-2" transform="translate(1960.000000, 5004.000000)" fill="#F75643">
                <ellipse id="Oval" cx="343.075623" cy="336.628706" rx="343.075623" ry="336.628706"></ellipse>
                <path d="M-5.68434189e-14,353.460141 L343.075623,353.460141 L343.075623,673.257411 L150,673.257411 C67.1572875,673.257411 -5.17707657e-14,606.100124 -5.68434189e-14,523.257411 L-5.68434189e-14,353.460141 Z" id="Rectangle"></path>
            </g>
            <g id="Group-5" transform="translate(424.000000, 1932.000000)" fill="#260449">
                <ellipse id="Oval" cx="343.075623" cy="336.628706" rx="343.075623" ry="336.628706"></ellipse>
                <path d="M-5.68434189e-14,353.460141 L343.075623,353.460141 L343.075623,673.257411 L150,673.257411 C67.1572875,673.257411 -5.17707657e-14,606.100124 -5.68434189e-14,523.257411 L-5.68434189e-14,353.460141 Z" id="Rectangle"></path>
            </g>
            <g id="Group-5" transform="translate(1960.000000, 1932.000000)" fill="#F75643">
                <ellipse id="Oval" cx="343.075623" cy="336.628706" rx="343.075623" ry="336.628706"></ellipse>
                <path d="M-5.68434189e-14,353.460141 L343.075623,353.460141 L343.075623,673.257411 L150,673.257411 C67.1572875,673.257411 -5.17707657e-14,606.100124 -5.68434189e-14,523.257411 L-5.68434189e-14,353.460141 Z" id="Rectangle"></path>
            </g>
            <g id="Group-5" transform="translate(3496.000000, 1932.000000)" fill="#260449">
                <ellipse id="Oval" cx="343.075623" cy="336.628706" rx="343.075623" ry="336.628706"></ellipse>
                <path d="M-5.68434189e-14,353.460141 L343.075623,353.460141 L343.075623,673.257411 L150,673.257411 C67.1572875,673.257411 -5.17707657e-14,606.100124 -5.68434189e-14,523.257411 L-5.68434189e-14,353.460141 Z" id="Rectangle"></path>
            </g>
            <g id="Group-Copy" transform="translate(0.000000, 6144.000000)">
                <rect id="Rectangle-Copy-2" fill="#F75643" x="0" y="0" width="1536" height="1466"></rect>
                <rect id="Rectangle-Copy-3" fill="#260449" x="1536" y="0" width="1536" height="1466"></rect>
            </g>
            <g id="Group-Copy-5">
                <rect id="Rectangle-Copy-2" fill="#F75643" x="0" y="0" width="1536" height="1466"></rect>
                <rect id="Rectangle-Copy-3" fill="#260449" x="1536" y="0" width="1536" height="1466"></rect>
            </g>
            <g id="Group-Copy-4" transform="translate(3072.000000, 6144.000000)" fill="#F75643">
                <rect id="Rectangle-Copy-2" x="0" y="0" width="1536" height="1466"></rect>
            </g>
            <g id="Group-Copy-6" transform="translate(3072.000000, 0.000000)" fill="#F75643">
                <rect id="Rectangle-Copy-2" x="0" y="0" width="1536" height="1466"></rect>
            </g>
            <g id="Group-5-Copy-3" transform="translate(424.000000, 6540.000000)" fill="#F3B426">
                <ellipse id="Oval" cx="343.075623" cy="336.628706" rx="343.075623" ry="336.628706"></ellipse>
                <path d="M-5.68434189e-14,353.460141 L343.075623,353.460141 L343.075623,673.257411 L150,673.257411 C67.1572875,673.257411 -5.17707657e-14,606.100124 -5.68434189e-14,523.257411 L-5.68434189e-14,353.460141 Z" id="Rectangle"></path>
            </g>
            <g id="Group-5-Copy-6" transform="translate(424.000000, 396.000000)" fill="#F3B426">
                <ellipse id="Oval" cx="343.075623" cy="336.628706" rx="343.075623" ry="336.628706"></ellipse>
                <path d="M-5.68434189e-14,353.460141 L343.075623,353.460141 L343.075623,673.257411 L150,673.257411 C67.1572875,673.257411 -5.17707657e-14,606.100124 -5.68434189e-14,523.257411 L-5.68434189e-14,353.460141 Z" id="Rectangle"></path>
            </g>
            <g id="Group-5-Copy-7" transform="translate(3496.000000, 6540.000000)" fill="#F3B426">
                <ellipse id="Oval" cx="343.075623" cy="336.628706" rx="343.075623" ry="336.628706"></ellipse>
                <path d="M-5.68434189e-14,353.460141 L343.075623,353.460141 L343.075623,673.257411 L150,673.257411 C67.1572875,673.257411 -5.17707657e-14,606.100124 -5.68434189e-14,523.257411 L-5.68434189e-14,353.460141 Z" id="Rectangle"></path>
            </g>
            <g id="Group-5-Copy-8" transform="translate(3496.000000, 396.000000)" fill="#F3B426">
                <ellipse id="Oval" cx="343.075623" cy="336.628706" rx="343.075623" ry="336.628706"></ellipse>
                <path d="M-5.68434189e-14,353.460141 L343.075623,353.460141 L343.075623,673.257411 L150,673.257411 C67.1572875,673.257411 -5.17707657e-14,606.100124 -5.68434189e-14,523.257411 L-5.68434189e-14,353.460141 Z" id="Rectangle"></path>
            </g>
            <g id="Group-5-Copy-4" transform="translate(1960.000000, 6540.000000)" fill="#7B3BB9">
                <ellipse id="Oval" cx="343.075623" cy="336.628706" rx="343.075623" ry="336.628706"></ellipse>
                <path d="M-5.68434189e-14,353.460141 L343.075623,353.460141 L343.075623,673.257411 L150,673.257411 C67.1572875,673.257411 -5.17707657e-14,606.100124 -5.68434189e-14,523.257411 L-5.68434189e-14,353.460141 Z" id="Rectangle"></path>
            </g>
            <g id="Group-5-Copy-9" transform="translate(1960.000000, 396.000000)" fill="#7B3BB9">
                <ellipse id="Oval" cx="343.075623" cy="336.628706" rx="343.075623" ry="336.628706"></ellipse>
                <path d="M-5.68434189e-14,353.460141 L343.075623,353.460141 L343.075623,673.257411 L150,673.257411 C67.1572875,673.257411 -5.17707657e-14,606.100124 -5.68434189e-14,523.257411 L-5.68434189e-14,353.460141 Z" id="Rectangle"></path>
            </g>
        </g>
    </g>
</svg>