<?xml version="1.0" encoding="UTF-8"?>
<svg width="1024px" height="1024px" viewBox="0 0 1024 1024" version="1.1" xmlns="http://www.w3.org/2000/svg" xmlns:xlink="http://www.w3.org/1999/xlink">
    <!-- Generator: Sketch 53.1 (72631) - https://sketchapp.com -->
    <title>Hero Copy</title>
    <desc>Created with Sketch.</desc>
    <g id="Hero-Copy" stroke="none" stroke-width="1" fill="none" fill-rule="evenodd">
        <rect fill="#000000" x="0" y="0" width="1024" height="1024"></rect>
        <rect id="Rectangle-Copy-6" fill="#48DC44" x="0" y="0" width="512" height="512"></rect>
        <rect id="Rectangle-Copy-7" fill="#FF00E0" x="512" y="0" width="512" height="512"></rect>
        <rect id="Rectangle-Copy-8" fill="#0016FF" x="0" y="512" width="512" height="512"></rect>
        <rect id="Rectangle-Copy-9" fill="#FF0000" x="512" y="512" width="512" height="512"></rect>
        <ellipse id="Oval-Copy" fill="#D30000" cx="255.5" cy="267.5" rx="114.5" ry="112.5"></ellipse>
        <path d="M141,273 L256,273 L256,380 L170.296875,380 C154.116658,380 141,366.883342 141,350.703125 L141,273 Z" id="Rectangle-Copy-10" fill="#D30000"></path>
        <path d="M141,155 L256,155 L256,262 L170.296875,262 C154.116658,262 141,248.883342 141,232.703125 L141,155 Z" id="Rectangle-Copy-11" fill="#D30000" transform="translate(198.500000, 208.500000) scale(1, -1) translate(-198.500000, -208.500000) "></path>
        <ellipse id="Oval-Copy-2" fill="#F75643" cx="767.5" cy="267.5" rx="114.5" ry="112.5"></ellipse>
        <path d="M653,273 L768,273 L768,380 L682.296875,380 C666.116658,380 653,366.883342 653,350.703125 L653,273 Z" id="Rectangle-Copy-12" fill="#005EFF"></path>
        <ellipse id="Oval-Copy-3" fill="#005EFF" transform="translate(768.000000, 267.500000) scale(-1, 1) translate(-768.000000, -267.500000) " cx="768" cy="267.5" rx="114" ry="112.5"></ellipse>
        <path d="M768,273 L882,273 L882,380 L797.296875,380 C781.116658,380 768,366.883342 768,350.703125 L768,273 Z" id="Rectangle-Copy-13" fill="#005EFF" transform="translate(825.000000, 326.500000) scale(-1, 1) translate(-825.000000, -326.500000) "></path>
        <rect id="Rectangle-Copy-14" fill="#48DC44" x="710" y="667" width="116" height="225" rx="29.296875"></rect>
        <path d="M190.148201,683.210258 L352.494135,842.457987 C363.890952,853.637308 364.067268,871.938884 352.887947,883.335701 C347.451842,888.877566 340.015141,892 332.252184,892 L169.90625,892 C153.941769,892 141,879.058231 141,863.09375 L141,703.846021 C141,687.88154 153.941769,674.939771 169.90625,674.939771 C177.476214,674.939771 184.744111,677.9093 190.148201,683.210258 Z" id="Rectangle-Copy-15" fill="#FF00E0"></path>
    </g>
</svg>