<?xml version="1.0" encoding="UTF-8"?>
<svg width="3072px" height="2048px" viewBox="0 0 3072 2048" version="1.1" xmlns="http://www.w3.org/2000/svg" xmlns:xlink="http://www.w3.org/1999/xlink">
    <!-- Generator: Sketch 53.1 (72631) - https://sketchapp.com -->
    <title>Logos Color</title>
    <desc>Created with Sketch.</desc>
    <defs>
        <path d="M45.144,45.4597995 C36.8279584,45.4597995 30.5910208,43.5656602 26.433,39.7773246 C22.2749792,35.988989 20.196,30.6951123 20.196,23.8955357 C20.196,17.095959 22.9184728,11.4135409 28.3635,6.84811083 C33.8085272,2.28268078 40.5899594,1.17239551e-13 48.708,1.17239551e-13 C56.0340366,1.17239551e-13 61.9739772,1.74843634 66.528,5.24536148 C71.0820228,8.74228663 73.359,13.6961896 73.359,20.107219 C73.359,27.8781638 70.7850257,34.0462587 65.637,38.6116887 C60.4889743,43.1771187 53.6580426,45.4597995 45.144,45.4597995 Z" id="path-1"></path>
        <path d="M45.144,45.4597995 C36.8279584,45.4597995 30.5910208,43.5656602 26.433,39.7773246 C22.2749792,35.988989 20.196,30.6951123 20.196,23.8955357 C20.196,17.095959 22.9184728,11.4135409 28.3635,6.84811083 C33.8085272,2.28268078 40.5899594,1.17239551e-13 48.708,1.17239551e-13 C56.0340366,1.17239551e-13 61.9739772,1.74843634 66.528,5.24536148 C71.0820228,8.74228663 73.359,13.6961896 73.359,20.107219 C73.359,27.8781638 70.7850257,34.0462587 65.637,38.6116887 C60.4889743,43.1771187 53.6580426,45.4597995 45.144,45.4597995 Z" id="path-2"></path>
        <path d="M45.144,45.4597995 C36.8279584,45.4597995 30.5910208,43.5656602 26.433,39.7773246 C22.2749792,35.988989 20.196,30.6951123 20.196,23.8955357 C20.196,17.095959 22.9184728,11.4135409 28.3635,6.84811083 C33.8085272,2.28268078 40.5899594,1.17239551e-13 48.708,1.17239551e-13 C56.0340366,1.17239551e-13 61.9739772,1.74843634 66.528,5.24536148 C71.0820228,8.74228663 73.359,13.6961896 73.359,20.107219 C73.359,27.8781638 70.7850257,34.0462587 65.637,38.6116887 C60.4889743,43.1771187 53.6580426,45.4597995 45.144,45.4597995 Z" id="path-3"></path>
    </defs>
    <g id="Logos-Color" stroke="none" stroke-width="1" fill="none" fill-rule="evenodd">
        <rect fill="#F75643" x="0" y="0" width="3072" height="2048"></rect>
        <rect id="Rectangle" fill="#7B3BB9" x="0" y="0" width="1536" height="1024"></rect>
        <rect id="Rectangle-Copy" fill="#F3B426" x="1536" y="0" width="1536" height="1024"></rect>
        <rect id="Rectangle-Copy-2" fill="#F75643" x="0" y="1024" width="1536" height="1024"></rect>
        <rect id="Rectangle-Copy-3" fill="#260449" x="1536" y="1024" width="1536" height="1024"></rect>
        <g id="Group-8" transform="translate(148.000000, 287.309353)">
            <g id="Group-7">
                <g id="Group-4" transform="translate(546.000000, 100.374101)" fill-rule="nonzero">
                    <path d="M72.468,248.571853 C58.8059317,248.571853 46.4805549,245.269251 35.4915,238.663948 C24.5024451,232.058644 15.8400317,222.490812 9.504,209.960164 C3.16796832,197.429515 -4.26325641e-14,182.616374 -4.26325641e-14,165.520296 C-4.26325641e-14,135.990706 6.43493565,108.647104 19.305,83.4886703 C32.1750643,58.3302366 51.1828743,38.1260833 76.329,22.8756043 C101.475126,7.62512516 131.669824,4.26325641e-14 166.914,4.26325641e-14 C176.022046,4.26325641e-14 185.773448,0.679947467 196.1685,2.0398628 C206.563552,3.39977813 216.017957,5.43962053 224.532,8.1594512 C230.076028,9.71364015 232.848,13.5990542 232.848,19.8158101 C232.848,24.8669241 230.917519,29.6265564 227.0565,34.0948496 C223.195481,38.5631429 218.691026,40.797256 213.543,40.797256 C211.958992,40.797256 210.771004,40.7001206 209.979,40.505847 C199.682949,38.1745636 190.872037,36.4746949 183.546,35.40619 C176.219963,34.3376851 168.498041,33.8034407 160.38,33.8034407 C135.233874,33.8034407 113.850088,39.7772649 96.228,51.7250924 C78.6059119,63.67292 65.4390436,79.4574147 56.727,99.0790503 C48.0149564,118.700686 43.659,139.876193 43.659,162.606206 C43.659,179.119464 46.9754668,191.892762 53.6085,200.926486 C60.2415332,209.960209 68.9039465,214.477003 79.596,214.477003 C91.6740604,214.477003 102.266954,209.620235 111.375,199.906554 C120.483046,190.192873 128.798962,174.456946 136.323,152.698301 C143.847038,130.939656 151.271963,101.410509 158.598,64.1099737 C159.786006,58.6703124 162.161982,54.979169 165.726,53.0364328 C169.290018,51.0936966 174.04197,50.1223431 179.982,50.1223431 C194.04007,50.1223431 201.069,54.5905693 201.069,63.5271558 C201.069,65.0813447 200.772003,67.0240518 200.178,69.3553352 C195.029974,88.1998762 190.327521,109.035409 186.0705,131.86256 C181.813479,154.68971 179.685,172.02837 179.685,183.879061 C179.685,194.369836 181.268984,201.994962 184.437,206.754665 C187.605016,211.514369 192.455967,213.894185 198.99,213.894185 C205.326032,213.894185 211.364971,211.805775 217.107,207.628892 C222.849029,203.452009 230.075956,196.312561 238.788,186.210333 C241.164012,183.490502 243.836985,182.130607 246.807,182.130607 C249.381013,182.130607 251.410493,183.296231 252.8955,185.627515 C254.380507,187.958798 255.123,191.164265 255.123,195.244011 C255.123,202.820682 253.242019,208.843074 249.48,213.311367 C239.777951,224.773511 230.274047,233.515692 220.968,239.538174 C211.661953,245.560657 200.277067,248.571853 186.813,248.571853 C172.952931,248.571853 161.766043,244.637871 153.252,236.769789 C144.737957,228.901708 139.392011,217.77971 137.214,203.403462 C122.561927,233.515873 100.980143,248.571853 72.468,248.571853 Z" id="Path" fill="#F75643"></path>
                    <g id="Group" transform="translate(227.390625, 36.185324)">
                        <g id="Group-11" transform="translate(-0.000000, 0.000000)">
                            <g id="Path">
                                <use fill="#4F4F4F" xlink:href="#path-1"></use>
                                <use fill="#F75643" xlink:href="#path-1"></use>
                            </g>
                            <path d="M16.632,201.946417 C10.2959683,201.946417 5.94001188,200.683658 3.564,198.158101 C1.18798812,195.632543 -8.17124146e-14,191.649994 -8.17124146e-14,186.210333 C-8.17124146e-14,184.656144 0.19799802,181.936354 0.594,178.050881 C3.76201584,142.498809 9.00896337,110.152737 16.335,81.011694 C17.9190079,74.9892118 20.5424817,70.763824 24.2055,68.3354038 C27.8685183,65.9069835 33.7589594,64.6927916 41.877,64.6927916 C50.3910426,64.6927916 54.648,68.092529 54.648,74.8921056 C54.648,75.8634737 54.450002,77.7090454 54.054,80.4288761 C45.1439554,122.003431 39.7980089,156.875022 38.016,185.044697 C37.619998,191.261453 35.7390168,195.632543 32.373,198.158101 C29.0069832,200.683658 23.7600356,201.946417 16.632,201.946417 Z" id="Path" fill="#F75643"></path>
                        </g>
                    </g>
                    <g id="Group-3" transform="translate(305.894531, 46.167482)" fill="#FFFFFF">
                        <g id="Group-6" transform="translate(0.000000, 0.000000)">
                            <path d="M20.493,201.946417 C12.9689624,201.946417 7.67251535,198.061003 4.6035,190.290058 C1.53448466,182.519114 0,170.085788 0,152.98971 C0,127.734139 3.66296337,103.741707 10.989,81.011694 C12.7710089,75.3777591 15.6914797,71.2495066 19.7505,68.6268128 C23.8095203,66.0041189 29.5019634,64.6927916 36.828,64.6927916 C40.7880198,64.6927916 43.5599921,65.1784684 45.144,66.1498365 C46.7280079,67.1212046 47.52,68.9667763 47.52,71.686607 C47.52,74.7949849 46.0350149,81.7887302 43.065,92.6680529 C41.0849901,100.438998 39.5010059,107.189905 38.313,112.920976 C37.1249941,118.652048 36.135004,125.791497 35.343,134.339536 C40.6890267,119.186194 47.0744629,106.364327 54.4995,95.8735516 C61.9245371,85.3827762 69.5474609,77.5633803 77.3685,72.4151294 C85.1895391,67.2668785 92.5649653,64.6927916 99.495,64.6927916 C106.425035,64.6927916 111.325486,66.2469573 114.1965,69.3553352 C117.067514,72.4637131 118.503,77.2233454 118.503,83.6343748 C118.503,89.8511306 116.622019,101.118831 112.86,117.437815 C111.275992,124.431666 110.187003,129.676975 109.593,133.1739 C119.49305,109.278245 130.48194,91.8910167 142.56,81.011694 C154.63806,70.1323714 165.923948,64.6927916 176.418,64.6927916 C189.288064,64.6927916 195.723,71.0065895 195.723,83.6343748 C195.723,91.2110459 193.545022,104.907131 189.189,124.72304 C185.426981,141.624845 183.546,152.79541 183.546,158.235071 C183.546,166.006016 186.416971,169.89143 192.159,169.89143 C196.11902,169.89143 200.821473,167.511614 206.2665,162.75191 C211.711527,157.992207 218.987954,150.269946 228.096,139.584897 C230.472012,136.865067 233.144985,135.505172 236.115,135.505172 C238.689013,135.505172 240.718493,136.670796 242.2035,139.002079 C243.688507,141.333363 244.431,144.538829 244.431,148.618575 C244.431,156.38952 242.550019,162.411912 238.788,166.685932 C230.273957,176.982433 221.116549,185.433209 211.3155,192.038512 C201.514451,198.643815 190.377062,201.946417 177.903,201.946417 C167.80495,201.946417 160.182026,199.080924 155.034,193.349852 C149.885974,187.618781 147.312,179.313708 147.312,168.434385 C147.312,162.994724 148.697986,153.281189 151.47,139.293488 C154.044013,127.05425 155.331,118.603475 155.331,113.940908 C155.331,110.83253 154.242011,109.278364 152.064,109.278364 C149.489987,109.278364 145.827024,112.532399 141.075,119.040565 C136.322976,125.548731 131.571024,134.14521 126.819,144.830259 C122.066976,155.515308 118.206015,166.783009 115.236,178.633699 C113.057989,187.958833 110.533514,194.175496 107.6625,197.283874 C104.791486,200.392252 100.188032,201.946417 93.852,201.946417 C87.3179673,201.946417 82.4175163,198.886654 79.1505,192.767035 C75.8834837,186.647416 74.25,179.216561 74.25,170.474248 C74.25,163.091851 75.2399901,152.406962 77.22,138.419261 C78.8040079,125.98575 79.596,117.82638 79.596,113.940908 C79.596,110.83253 78.5070109,109.278364 76.329,109.278364 C73.3589851,109.278364 69.5970228,112.775237 65.043,119.769087 C60.4889772,126.762938 56.0835213,135.69939 51.8265,146.578713 C47.5694787,157.458035 44.1540129,168.142924 41.58,178.633699 C39.4019891,187.76456 36.8775144,193.932654 34.0065,197.138169 C31.1354856,200.343684 26.6310307,201.946417 20.493,201.946417 Z" id="Path"></path>
                            <path d="M262.182462,45.4597995 C253.86642,45.4597995 247.629482,43.5656602 243.471462,39.7773246 C239.313441,35.988989 237.234462,30.6951123 237.234462,23.8955357 C237.234462,17.095959 239.956934,11.4135409 245.401962,6.84811083 C250.846989,2.28268078 257.628421,2.84217094e-14 265.746462,2.84217094e-14 C273.072498,2.84217094e-14 279.012439,1.74843634 283.566462,5.24536148 C288.120484,8.74228663 290.397462,13.6961896 290.397462,20.107219 C290.397462,27.8781638 287.823487,34.0462587 282.675462,38.6116887 C277.527436,43.1771187 270.696504,45.4597995 262.182462,45.4597995 Z" id="Path-Copy"></path>
                            <path d="M233.670462,201.946417 C227.33443,201.946417 222.978473,200.683658 220.602462,198.158101 C218.22645,195.632543 217.038462,191.649994 217.038462,186.210333 C217.038462,184.656144 217.23646,181.936354 217.632462,178.050881 C220.800477,142.498809 226.047425,110.152737 233.373462,81.011694 C234.957469,74.9892118 237.580943,70.763824 241.243962,68.3354038 C244.90698,65.9069835 250.797421,64.6927916 258.915462,64.6927916 C267.429504,64.6927916 271.686462,68.092529 271.686462,74.8921056 C271.686462,75.8634737 271.488464,77.7090454 271.092462,80.4288761 C262.182417,122.003431 256.83647,156.875022 255.054462,185.044697 C254.65846,191.261453 252.777478,195.632543 249.411462,198.158101 C246.045445,200.683658 240.798497,201.946417 233.670462,201.946417 Z" id="Path-Copy-2"></path>
                        </g>
                    </g>
                    <g id="Group-2" transform="translate(595.546875, 46.167482)" fill="#F3B426">
                        <g id="Group-10">
                            <g id="Group-12" transform="translate(-0.000000, 0.000000)">
                                <path d="M50.6270769,45.4597995 C42.3110353,45.4597995 36.0740977,43.5656602 31.9160769,39.7773246 C27.7580561,35.988989 25.6790769,30.6951123 25.6790769,23.8955357 C25.6790769,17.095959 28.4015497,11.4135409 33.8465769,6.84811083 C39.2916041,2.28268078 46.0730363,-1.66977543e-13 54.1910769,-1.66977543e-13 C61.5171136,-1.66977543e-13 67.4570542,1.74843634 72.0110769,5.24536148 C76.5650997,8.74228663 78.8420769,13.6961896 78.8420769,20.107219 C78.8420769,27.8781638 76.2681027,34.0462587 71.1200769,38.6116887 C65.9720512,43.1771187 59.1411195,45.4597995 50.6270769,45.4597995 Z" id="Path"></path>
                                <path d="M36.828,201.946417 C23.9579357,201.946417 14.6025292,197.478191 8.7615,188.541604 C2.92047079,179.605018 -3.55271368e-14,167.754505 -3.55271368e-14,152.98971 C-3.55271368e-14,144.247397 1.13848862,133.028264 3.4155,119.331974 C5.69251139,105.635684 8.61298218,92.8623848 12.177,81.011694 C13.9590089,74.7949382 16.3349852,70.5209827 19.305,68.1896993 C22.2750149,65.8584159 27.0269673,64.6927916 33.561,64.6927916 C43.6590505,64.6927916 48.708,67.9953936 48.708,74.6006967 C48.708,79.4575371 46.8270188,90.725238 43.065,108.404137 C38.3129762,129.774235 35.937,144.247403 35.937,151.824074 C35.937,157.652283 36.7289921,162.120509 38.313,165.228887 C39.8970079,168.337265 42.5699812,169.89143 46.332,169.89143 C49.8960178,169.89143 54.3509733,167.463046 59.697,162.606206 C65.0430267,157.749366 72.1709555,150.075673 81.081,139.584897 C83.4570119,136.865067 86.1299852,135.505172 89.1,135.505172 C91.6740129,135.505172 93.7034926,136.670796 95.1885,139.002079 C96.6735074,141.333363 97.416,144.538829 97.416,148.618575 C97.416,156.38952 95.5350188,162.411912 91.773,166.685932 C72.170902,190.19304 53.8560851,201.946417 36.828,201.946417 Z" id="Path"></path>
                            </g>
                        </g>
                    </g>
                </g>
                <g id="Group-5">
                    <ellipse id="Oval" fill="#260449" cx="228.717082" cy="224.252654" rx="228.717082" ry="224.252654"></ellipse>
                    <path d="M-5.68434189e-14,235.465287 L228.717082,235.465287 L228.717082,448.505308 L100,448.505308 C44.771525,448.505308 -3.58690266e-14,403.733783 -4.26325641e-14,348.505308 L-5.68434189e-14,235.465287 Z" id="Rectangle" fill="#260449"></path>
                    <path d="M100.185307,325.166348 C92.7929565,325.166348 87.5892086,321.357424 84.5739075,313.739461 C81.5586065,306.121499 80.0509786,293.932941 80.0509786,277.173424 C80.0509786,252.415045 83.6498323,228.894938 90.8476477,206.612397 C92.5984676,201.089375 95.4678239,197.042393 99.4558027,194.47133 C103.443781,191.900268 109.036595,190.614756 116.23441,190.614756 C120.125121,190.614756 122.848578,191.090871 124.404862,192.043117 C125.961147,192.995362 126.739277,194.804601 126.739277,197.470888 C126.739277,200.518073 125.280282,207.374137 122.362249,218.039284 C120.416894,225.657247 118.860633,232.275253 117.693419,237.8935 C116.526206,243.511748 115.553543,250.510646 114.775401,258.890405 C120.027861,244.035378 126.301538,231.465928 133.596621,221.181678 C140.891704,210.897429 148.381211,203.231969 156.065365,198.185068 C163.749519,193.138168 170.99586,190.614756 177.804604,190.614756 C184.613348,190.614756 189.428031,192.138326 192.248796,195.185511 C195.069562,198.232696 196.479923,202.898628 196.479923,209.183447 C196.479923,215.277817 194.631863,226.323697 190.935688,242.321419 C189.379403,249.177585 188.309474,254.319633 187.725867,257.747716 C197.452645,234.322481 208.249206,217.277545 220.115874,206.612397 C231.982543,195.94725 243.070903,190.614756 253.381287,190.614756 C266.026098,190.614756 272.348408,196.804258 272.348408,209.183447 C272.348408,216.610961 270.208549,230.037418 265.928767,249.463223 C262.232592,266.032292 260.384532,276.982949 260.384532,282.315523 C260.384532,289.933485 263.205255,293.74241 268.846786,293.74241 C272.737497,293.74241 277.357647,291.409443 282.707375,286.743441 C288.057102,282.077439 295.206176,274.507202 304.154812,264.032504 C306.489238,261.366217 309.115429,260.033093 312.033462,260.033093 C314.562424,260.033093 316.556384,261.175771 318.0154,263.461159 C319.474417,265.746548 320.203914,268.888911 320.203914,272.888341 C320.203914,280.506304 318.355854,286.410136 314.659679,290.600016 C306.29465,300.693816 297.297516,308.978226 287.668006,315.453495 C278.038497,321.928763 267.096036,325.166348 254.840296,325.166348 C244.918983,325.166348 237.429477,322.357267 232.371553,316.739019 C227.313628,311.120772 224.784704,302.979196 224.784704,292.314049 C224.784704,286.981475 226.146433,277.459164 228.86993,263.746832 C231.398892,251.74854 232.663355,243.46413 232.663355,238.893353 C232.663355,235.846168 231.593425,234.322598 229.453534,234.322598 C226.924572,234.322598 223.325718,237.512572 218.656865,243.892616 C213.988012,250.272659 209.319229,258.699904 204.650375,269.174603 C199.981522,279.649301 196.188136,290.695182 193.270103,302.312575 C191.130212,311.45413 188.649921,317.548409 185.829155,320.595594 C183.00839,323.642779 178.485506,325.166348 172.260368,325.166348 C165.840695,325.166348 161.026013,322.166821 157.816176,316.167675 C154.606339,310.168529 153.001445,302.883962 153.001445,294.313754 C153.001445,287.076689 153.974108,276.602148 155.919464,262.889815 C157.475748,250.701075 158.253879,242.702334 158.253879,238.893353 C158.253879,235.846168 157.183949,234.322598 155.044058,234.322598 C152.126025,234.322598 148.429905,237.75063 143.955587,244.606796 C139.48127,251.462963 135.152919,260.223488 130.970404,270.888636 C126.78789,281.553784 123.432202,292.028325 120.90324,302.312575 C118.763349,311.263681 116.283058,317.310348 113.462292,320.452758 C110.641527,323.595167 106.215909,325.166348 100.185307,325.166348 Z" id="Path" fill="#F3B426" fill-rule="nonzero"></path>
                    <path d="M347.036645,168.189491 C338.092357,168.189491 331.384241,166.320737 326.912097,162.583174 C322.439953,158.845611 320.203914,153.622685 320.203914,146.914239 C320.203914,140.205792 323.13206,134.599532 328.988439,130.09529 C334.844818,125.591047 342.138563,123.33896 350.869892,123.33896 C358.749384,123.33896 365.138065,125.063963 370.036128,128.514021 C374.93419,131.964079 377.383185,136.851588 377.383185,143.176694 C377.383185,150.84349 374.614756,156.928918 369.077816,161.433161 C363.540876,165.937403 356.193892,168.189491 347.036645,168.189491 Z" id="Path" fill="#F3B426" fill-rule="nonzero"></path>
                    <path d="M314.734593,325.166348 C308.105079,325.166348 303.547357,323.928448 301.061289,321.45261 C298.575221,318.976772 297.332206,315.072625 297.332206,309.740051 C297.332206,308.216459 297.539375,305.550212 297.95372,301.74123 C301.268477,266.889051 306.758461,235.179757 314.423836,206.612397 C316.081214,200.708476 318.826206,196.566271 322.658894,194.185658 C326.491582,191.805045 332.654865,190.614756 341.14893,190.614756 C350.057339,190.614756 354.511477,193.947565 354.511477,200.613282 C354.511477,201.565527 354.304307,203.374766 353.889963,206.041053 C344.567209,246.797153 338.973641,280.982248 337.10909,308.597362 C336.694745,314.691733 334.726638,318.976772 331.204709,321.45261 C327.68278,323.928448 322.192796,325.166348 314.734593,325.166348 Z" id="Path" fill="#F3B426" fill-rule="nonzero"></path>
                </g>
            </g>
        </g>
        <g id="Group-8-Copy" transform="translate(1684.000000, 287.309353)">
            <g id="Group-7">
                <g id="Group-4" transform="translate(546.000000, 100.374101)" fill-rule="nonzero">
                    <path d="M72.468,248.571853 C58.8059317,248.571853 46.4805549,245.269251 35.4915,238.663948 C24.5024451,232.058644 15.8400317,222.490812 9.504,209.960164 C3.16796832,197.429515 -4.26325641e-14,182.616374 -4.26325641e-14,165.520296 C-4.26325641e-14,135.990706 6.43493565,108.647104 19.305,83.4886703 C32.1750643,58.3302366 51.1828743,38.1260833 76.329,22.8756043 C101.475126,7.62512516 131.669824,4.26325641e-14 166.914,4.26325641e-14 C176.022046,4.26325641e-14 185.773448,0.679947467 196.1685,2.0398628 C206.563552,3.39977813 216.017957,5.43962053 224.532,8.1594512 C230.076028,9.71364015 232.848,13.5990542 232.848,19.8158101 C232.848,24.8669241 230.917519,29.6265564 227.0565,34.0948496 C223.195481,38.5631429 218.691026,40.797256 213.543,40.797256 C211.958992,40.797256 210.771004,40.7001206 209.979,40.505847 C199.682949,38.1745636 190.872037,36.4746949 183.546,35.40619 C176.219963,34.3376851 168.498041,33.8034407 160.38,33.8034407 C135.233874,33.8034407 113.850088,39.7772649 96.228,51.7250924 C78.6059119,63.67292 65.4390436,79.4574147 56.727,99.0790503 C48.0149564,118.700686 43.659,139.876193 43.659,162.606206 C43.659,179.119464 46.9754668,191.892762 53.6085,200.926486 C60.2415332,209.960209 68.9039465,214.477003 79.596,214.477003 C91.6740604,214.477003 102.266954,209.620235 111.375,199.906554 C120.483046,190.192873 128.798962,174.456946 136.323,152.698301 C143.847038,130.939656 151.271963,101.410509 158.598,64.1099737 C159.786006,58.6703124 162.161982,54.979169 165.726,53.0364328 C169.290018,51.0936966 174.04197,50.1223431 179.982,50.1223431 C194.04007,50.1223431 201.069,54.5905693 201.069,63.5271558 C201.069,65.0813447 200.772003,67.0240518 200.178,69.3553352 C195.029974,88.1998762 190.327521,109.035409 186.0705,131.86256 C181.813479,154.68971 179.685,172.02837 179.685,183.879061 C179.685,194.369836 181.268984,201.994962 184.437,206.754665 C187.605016,211.514369 192.455967,213.894185 198.99,213.894185 C205.326032,213.894185 211.364971,211.805775 217.107,207.628892 C222.849029,203.452009 230.075956,196.312561 238.788,186.210333 C241.164012,183.490502 243.836985,182.130607 246.807,182.130607 C249.381013,182.130607 251.410493,183.296231 252.8955,185.627515 C254.380507,187.958798 255.123,191.164265 255.123,195.244011 C255.123,202.820682 253.242019,208.843074 249.48,213.311367 C239.777951,224.773511 230.274047,233.515692 220.968,239.538174 C211.661953,245.560657 200.277067,248.571853 186.813,248.571853 C172.952931,248.571853 161.766043,244.637871 153.252,236.769789 C144.737957,228.901708 139.392011,217.77971 137.214,203.403462 C122.561927,233.515873 100.980143,248.571853 72.468,248.571853 Z" id="Path" fill="#7B3BB9"></path>
                    <g id="Group" transform="translate(227.390625, 36.185324)">
                        <g id="Group-11" transform="translate(-0.000000, 0.000000)">
                            <g id="Path">
                                <use fill="#4F4F4F" xlink:href="#path-2"></use>
                                <use fill="#7B3BB9" xlink:href="#path-2"></use>
                            </g>
                            <path d="M16.632,201.946417 C10.2959683,201.946417 5.94001188,200.683658 3.564,198.158101 C1.18798812,195.632543 -8.17124146e-14,191.649994 -8.17124146e-14,186.210333 C-8.17124146e-14,184.656144 0.19799802,181.936354 0.594,178.050881 C3.76201584,142.498809 9.00896337,110.152737 16.335,81.011694 C17.9190079,74.9892118 20.5424817,70.763824 24.2055,68.3354038 C27.8685183,65.9069835 33.7589594,64.6927916 41.877,64.6927916 C50.3910426,64.6927916 54.648,68.092529 54.648,74.8921056 C54.648,75.8634737 54.450002,77.7090454 54.054,80.4288761 C45.1439554,122.003431 39.7980089,156.875022 38.016,185.044697 C37.619998,191.261453 35.7390168,195.632543 32.373,198.158101 C29.0069832,200.683658 23.7600356,201.946417 16.632,201.946417 Z" id="Path" fill="#7B3BB9"></path>
                        </g>
                    </g>
                    <g id="Group-3" transform="translate(305.894531, 46.167482)" fill="#FFFFFF">
                        <g id="Group-6" transform="translate(0.000000, 0.000000)">
                            <path d="M20.493,201.946417 C12.9689624,201.946417 7.67251535,198.061003 4.6035,190.290058 C1.53448466,182.519114 0,170.085788 0,152.98971 C0,127.734139 3.66296337,103.741707 10.989,81.011694 C12.7710089,75.3777591 15.6914797,71.2495066 19.7505,68.6268128 C23.8095203,66.0041189 29.5019634,64.6927916 36.828,64.6927916 C40.7880198,64.6927916 43.5599921,65.1784684 45.144,66.1498365 C46.7280079,67.1212046 47.52,68.9667763 47.52,71.686607 C47.52,74.7949849 46.0350149,81.7887302 43.065,92.6680529 C41.0849901,100.438998 39.5010059,107.189905 38.313,112.920976 C37.1249941,118.652048 36.135004,125.791497 35.343,134.339536 C40.6890267,119.186194 47.0744629,106.364327 54.4995,95.8735516 C61.9245371,85.3827762 69.5474609,77.5633803 77.3685,72.4151294 C85.1895391,67.2668785 92.5649653,64.6927916 99.495,64.6927916 C106.425035,64.6927916 111.325486,66.2469573 114.1965,69.3553352 C117.067514,72.4637131 118.503,77.2233454 118.503,83.6343748 C118.503,89.8511306 116.622019,101.118831 112.86,117.437815 C111.275992,124.431666 110.187003,129.676975 109.593,133.1739 C119.49305,109.278245 130.48194,91.8910167 142.56,81.011694 C154.63806,70.1323714 165.923948,64.6927916 176.418,64.6927916 C189.288064,64.6927916 195.723,71.0065895 195.723,83.6343748 C195.723,91.2110459 193.545022,104.907131 189.189,124.72304 C185.426981,141.624845 183.546,152.79541 183.546,158.235071 C183.546,166.006016 186.416971,169.89143 192.159,169.89143 C196.11902,169.89143 200.821473,167.511614 206.2665,162.75191 C211.711527,157.992207 218.987954,150.269946 228.096,139.584897 C230.472012,136.865067 233.144985,135.505172 236.115,135.505172 C238.689013,135.505172 240.718493,136.670796 242.2035,139.002079 C243.688507,141.333363 244.431,144.538829 244.431,148.618575 C244.431,156.38952 242.550019,162.411912 238.788,166.685932 C230.273957,176.982433 221.116549,185.433209 211.3155,192.038512 C201.514451,198.643815 190.377062,201.946417 177.903,201.946417 C167.80495,201.946417 160.182026,199.080924 155.034,193.349852 C149.885974,187.618781 147.312,179.313708 147.312,168.434385 C147.312,162.994724 148.697986,153.281189 151.47,139.293488 C154.044013,127.05425 155.331,118.603475 155.331,113.940908 C155.331,110.83253 154.242011,109.278364 152.064,109.278364 C149.489987,109.278364 145.827024,112.532399 141.075,119.040565 C136.322976,125.548731 131.571024,134.14521 126.819,144.830259 C122.066976,155.515308 118.206015,166.783009 115.236,178.633699 C113.057989,187.958833 110.533514,194.175496 107.6625,197.283874 C104.791486,200.392252 100.188032,201.946417 93.852,201.946417 C87.3179673,201.946417 82.4175163,198.886654 79.1505,192.767035 C75.8834837,186.647416 74.25,179.216561 74.25,170.474248 C74.25,163.091851 75.2399901,152.406962 77.22,138.419261 C78.8040079,125.98575 79.596,117.82638 79.596,113.940908 C79.596,110.83253 78.5070109,109.278364 76.329,109.278364 C73.3589851,109.278364 69.5970228,112.775237 65.043,119.769087 C60.4889772,126.762938 56.0835213,135.69939 51.8265,146.578713 C47.5694787,157.458035 44.1540129,168.142924 41.58,178.633699 C39.4019891,187.76456 36.8775144,193.932654 34.0065,197.138169 C31.1354856,200.343684 26.6310307,201.946417 20.493,201.946417 Z" id="Path"></path>
                            <path d="M262.182462,45.4597995 C253.86642,45.4597995 247.629482,43.5656602 243.471462,39.7773246 C239.313441,35.988989 237.234462,30.6951123 237.234462,23.8955357 C237.234462,17.095959 239.956934,11.4135409 245.401962,6.84811083 C250.846989,2.28268078 257.628421,2.84217094e-14 265.746462,2.84217094e-14 C273.072498,2.84217094e-14 279.012439,1.74843634 283.566462,5.24536148 C288.120484,8.74228663 290.397462,13.6961896 290.397462,20.107219 C290.397462,27.8781638 287.823487,34.0462587 282.675462,38.6116887 C277.527436,43.1771187 270.696504,45.4597995 262.182462,45.4597995 Z" id="Path-Copy"></path>
                            <path d="M233.670462,201.946417 C227.33443,201.946417 222.978473,200.683658 220.602462,198.158101 C218.22645,195.632543 217.038462,191.649994 217.038462,186.210333 C217.038462,184.656144 217.23646,181.936354 217.632462,178.050881 C220.800477,142.498809 226.047425,110.152737 233.373462,81.011694 C234.957469,74.9892118 237.580943,70.763824 241.243962,68.3354038 C244.90698,65.9069835 250.797421,64.6927916 258.915462,64.6927916 C267.429504,64.6927916 271.686462,68.092529 271.686462,74.8921056 C271.686462,75.8634737 271.488464,77.7090454 271.092462,80.4288761 C262.182417,122.003431 256.83647,156.875022 255.054462,185.044697 C254.65846,191.261453 252.777478,195.632543 249.411462,198.158101 C246.045445,200.683658 240.798497,201.946417 233.670462,201.946417 Z" id="Path-Copy-2"></path>
                        </g>
                    </g>
                    <g id="Group-2" transform="translate(595.546875, 46.167482)" fill="#F75643">
                        <g id="Group-10">
                            <g id="Group-12" transform="translate(-0.000000, 0.000000)">
                                <path d="M50.6270769,45.4597995 C42.3110353,45.4597995 36.0740977,43.5656602 31.9160769,39.7773246 C27.7580561,35.988989 25.6790769,30.6951123 25.6790769,23.8955357 C25.6790769,17.095959 28.4015497,11.4135409 33.8465769,6.84811083 C39.2916041,2.28268078 46.0730363,-1.66977543e-13 54.1910769,-1.66977543e-13 C61.5171136,-1.66977543e-13 67.4570542,1.74843634 72.0110769,5.24536148 C76.5650997,8.74228663 78.8420769,13.6961896 78.8420769,20.107219 C78.8420769,27.8781638 76.2681027,34.0462587 71.1200769,38.6116887 C65.9720512,43.1771187 59.1411195,45.4597995 50.6270769,45.4597995 Z" id="Path"></path>
                                <path d="M36.828,201.946417 C23.9579357,201.946417 14.6025292,197.478191 8.7615,188.541604 C2.92047079,179.605018 -3.55271368e-14,167.754505 -3.55271368e-14,152.98971 C-3.55271368e-14,144.247397 1.13848862,133.028264 3.4155,119.331974 C5.69251139,105.635684 8.61298218,92.8623848 12.177,81.011694 C13.9590089,74.7949382 16.3349852,70.5209827 19.305,68.1896993 C22.2750149,65.8584159 27.0269673,64.6927916 33.561,64.6927916 C43.6590505,64.6927916 48.708,67.9953936 48.708,74.6006967 C48.708,79.4575371 46.8270188,90.725238 43.065,108.404137 C38.3129762,129.774235 35.937,144.247403 35.937,151.824074 C35.937,157.652283 36.7289921,162.120509 38.313,165.228887 C39.8970079,168.337265 42.5699812,169.89143 46.332,169.89143 C49.8960178,169.89143 54.3509733,167.463046 59.697,162.606206 C65.0430267,157.749366 72.1709555,150.075673 81.081,139.584897 C83.4570119,136.865067 86.1299852,135.505172 89.1,135.505172 C91.6740129,135.505172 93.7034926,136.670796 95.1885,139.002079 C96.6735074,141.333363 97.416,144.538829 97.416,148.618575 C97.416,156.38952 95.5350188,162.411912 91.773,166.685932 C72.170902,190.19304 53.8560851,201.946417 36.828,201.946417 Z" id="Path"></path>
                            </g>
                        </g>
                    </g>
                </g>
                <g id="Group-5">
                    <ellipse id="Oval" fill="#F75643" cx="228.717082" cy="224.252654" rx="228.717082" ry="224.252654"></ellipse>
                    <path d="M-5.68434189e-14,235.465287 L228.717082,235.465287 L228.717082,448.505308 L100,448.505308 C44.771525,448.505308 -3.58690266e-14,403.733783 -4.26325641e-14,348.505308 L-5.68434189e-14,235.465287 Z" id="Rectangle" fill="#F75643"></path>
                    <path d="M100.185307,325.166348 C92.7929565,325.166348 87.5892086,321.357424 84.5739075,313.739461 C81.5586065,306.121499 80.0509786,293.932941 80.0509786,277.173424 C80.0509786,252.415045 83.6498323,228.894938 90.8476477,206.612397 C92.5984676,201.089375 95.4678239,197.042393 99.4558027,194.47133 C103.443781,191.900268 109.036595,190.614756 116.23441,190.614756 C120.125121,190.614756 122.848578,191.090871 124.404862,192.043117 C125.961147,192.995362 126.739277,194.804601 126.739277,197.470888 C126.739277,200.518073 125.280282,207.374137 122.362249,218.039284 C120.416894,225.657247 118.860633,232.275253 117.693419,237.8935 C116.526206,243.511748 115.553543,250.510646 114.775401,258.890405 C120.027861,244.035378 126.301538,231.465928 133.596621,221.181678 C140.891704,210.897429 148.381211,203.231969 156.065365,198.185068 C163.749519,193.138168 170.99586,190.614756 177.804604,190.614756 C184.613348,190.614756 189.428031,192.138326 192.248796,195.185511 C195.069562,198.232696 196.479923,202.898628 196.479923,209.183447 C196.479923,215.277817 194.631863,226.323697 190.935688,242.321419 C189.379403,249.177585 188.309474,254.319633 187.725867,257.747716 C197.452645,234.322481 208.249206,217.277545 220.115874,206.612397 C231.982543,195.94725 243.070903,190.614756 253.381287,190.614756 C266.026098,190.614756 272.348408,196.804258 272.348408,209.183447 C272.348408,216.610961 270.208549,230.037418 265.928767,249.463223 C262.232592,266.032292 260.384532,276.982949 260.384532,282.315523 C260.384532,289.933485 263.205255,293.74241 268.846786,293.74241 C272.737497,293.74241 277.357647,291.409443 282.707375,286.743441 C288.057102,282.077439 295.206176,274.507202 304.154812,264.032504 C306.489238,261.366217 309.115429,260.033093 312.033462,260.033093 C314.562424,260.033093 316.556384,261.175771 318.0154,263.461159 C319.474417,265.746548 320.203914,268.888911 320.203914,272.888341 C320.203914,280.506304 318.355854,286.410136 314.659679,290.600016 C306.29465,300.693816 297.297516,308.978226 287.668006,315.453495 C278.038497,321.928763 267.096036,325.166348 254.840296,325.166348 C244.918983,325.166348 237.429477,322.357267 232.371553,316.739019 C227.313628,311.120772 224.784704,302.979196 224.784704,292.314049 C224.784704,286.981475 226.146433,277.459164 228.86993,263.746832 C231.398892,251.74854 232.663355,243.46413 232.663355,238.893353 C232.663355,235.846168 231.593425,234.322598 229.453534,234.322598 C226.924572,234.322598 223.325718,237.512572 218.656865,243.892616 C213.988012,250.272659 209.319229,258.699904 204.650375,269.174603 C199.981522,279.649301 196.188136,290.695182 193.270103,302.312575 C191.130212,311.45413 188.649921,317.548409 185.829155,320.595594 C183.00839,323.642779 178.485506,325.166348 172.260368,325.166348 C165.840695,325.166348 161.026013,322.166821 157.816176,316.167675 C154.606339,310.168529 153.001445,302.883962 153.001445,294.313754 C153.001445,287.076689 153.974108,276.602148 155.919464,262.889815 C157.475748,250.701075 158.253879,242.702334 158.253879,238.893353 C158.253879,235.846168 157.183949,234.322598 155.044058,234.322598 C152.126025,234.322598 148.429905,237.75063 143.955587,244.606796 C139.48127,251.462963 135.152919,260.223488 130.970404,270.888636 C126.78789,281.553784 123.432202,292.028325 120.90324,302.312575 C118.763349,311.263681 116.283058,317.310348 113.462292,320.452758 C110.641527,323.595167 106.215909,325.166348 100.185307,325.166348 Z" id="Path" fill="#260449" fill-rule="nonzero"></path>
                    <path d="M347.036645,168.189491 C338.092357,168.189491 331.384241,166.320737 326.912097,162.583174 C322.439953,158.845611 320.203914,153.622685 320.203914,146.914239 C320.203914,140.205792 323.13206,134.599532 328.988439,130.09529 C334.844818,125.591047 342.138563,123.33896 350.869892,123.33896 C358.749384,123.33896 365.138065,125.063963 370.036128,128.514021 C374.93419,131.964079 377.383185,136.851588 377.383185,143.176694 C377.383185,150.84349 374.614756,156.928918 369.077816,161.433161 C363.540876,165.937403 356.193892,168.189491 347.036645,168.189491 Z" id="Path" fill="#260449" fill-rule="nonzero"></path>
                    <path d="M314.734593,325.166348 C308.105079,325.166348 303.547357,323.928448 301.061289,321.45261 C298.575221,318.976772 297.332206,315.072625 297.332206,309.740051 C297.332206,308.216459 297.539375,305.550212 297.95372,301.74123 C301.268477,266.889051 306.758461,235.179757 314.423836,206.612397 C316.081214,200.708476 318.826206,196.566271 322.658894,194.185658 C326.491582,191.805045 332.654865,190.614756 341.14893,190.614756 C350.057339,190.614756 354.511477,193.947565 354.511477,200.613282 C354.511477,201.565527 354.304307,203.374766 353.889963,206.041053 C344.567209,246.797153 338.973641,280.982248 337.10909,308.597362 C336.694745,314.691733 334.726638,318.976772 331.204709,321.45261 C327.68278,323.928448 322.192796,325.166348 314.734593,325.166348 Z" id="Path" fill="#260449" fill-rule="nonzero"></path>
                </g>
            </g>
        </g>
        <g id="Group-8-Copy-2" transform="translate(148.000000, 1311.309353)">
            <g id="Group-7">
                <g id="Group-4" transform="translate(546.000000, 100.374101)" fill-rule="nonzero">
                    <path d="M72.468,248.571853 C58.8059317,248.571853 46.4805549,245.269251 35.4915,238.663948 C24.5024451,232.058644 15.8400317,222.490812 9.504,209.960164 C3.16796832,197.429515 -4.26325641e-14,182.616374 -4.26325641e-14,165.520296 C-4.26325641e-14,135.990706 6.43493565,108.647104 19.305,83.4886703 C32.1750643,58.3302366 51.1828743,38.1260833 76.329,22.8756043 C101.475126,7.62512516 131.669824,4.26325641e-14 166.914,4.26325641e-14 C176.022046,4.26325641e-14 185.773448,0.679947467 196.1685,2.0398628 C206.563552,3.39977813 216.017957,5.43962053 224.532,8.1594512 C230.076028,9.71364015 232.848,13.5990542 232.848,19.8158101 C232.848,24.8669241 230.917519,29.6265564 227.0565,34.0948496 C223.195481,38.5631429 218.691026,40.797256 213.543,40.797256 C211.958992,40.797256 210.771004,40.7001206 209.979,40.505847 C199.682949,38.1745636 190.872037,36.4746949 183.546,35.40619 C176.219963,34.3376851 168.498041,33.8034407 160.38,33.8034407 C135.233874,33.8034407 113.850088,39.7772649 96.228,51.7250924 C78.6059119,63.67292 65.4390436,79.4574147 56.727,99.0790503 C48.0149564,118.700686 43.659,139.876193 43.659,162.606206 C43.659,179.119464 46.9754668,191.892762 53.6085,200.926486 C60.2415332,209.960209 68.9039465,214.477003 79.596,214.477003 C91.6740604,214.477003 102.266954,209.620235 111.375,199.906554 C120.483046,190.192873 128.798962,174.456946 136.323,152.698301 C143.847038,130.939656 151.271963,101.410509 158.598,64.1099737 C159.786006,58.6703124 162.161982,54.979169 165.726,53.0364328 C169.290018,51.0936966 174.04197,50.1223431 179.982,50.1223431 C194.04007,50.1223431 201.069,54.5905693 201.069,63.5271558 C201.069,65.0813447 200.772003,67.0240518 200.178,69.3553352 C195.029974,88.1998762 190.327521,109.035409 186.0705,131.86256 C181.813479,154.68971 179.685,172.02837 179.685,183.879061 C179.685,194.369836 181.268984,201.994962 184.437,206.754665 C187.605016,211.514369 192.455967,213.894185 198.99,213.894185 C205.326032,213.894185 211.364971,211.805775 217.107,207.628892 C222.849029,203.452009 230.075956,196.312561 238.788,186.210333 C241.164012,183.490502 243.836985,182.130607 246.807,182.130607 C249.381013,182.130607 251.410493,183.296231 252.8955,185.627515 C254.380507,187.958798 255.123,191.164265 255.123,195.244011 C255.123,202.820682 253.242019,208.843074 249.48,213.311367 C239.777951,224.773511 230.274047,233.515692 220.968,239.538174 C211.661953,245.560657 200.277067,248.571853 186.813,248.571853 C172.952931,248.571853 161.766043,244.637871 153.252,236.769789 C144.737957,228.901708 139.392011,217.77971 137.214,203.403462 C122.561927,233.515873 100.980143,248.571853 72.468,248.571853 Z" id="Path" fill="#7B3BB9"></path>
                    <g id="Group" transform="translate(227.390625, 36.185324)">
                        <g id="Group-11" transform="translate(-0.000000, 0.000000)">
                            <g id="Path">
                                <use fill="#4F4F4F" xlink:href="#path-3"></use>
                                <use fill="#7B3BB9" xlink:href="#path-3"></use>
                            </g>
                            <path d="M16.632,201.946417 C10.2959683,201.946417 5.94001188,200.683658 3.564,198.158101 C1.18798812,195.632543 -8.17124146e-14,191.649994 -8.17124146e-14,186.210333 C-8.17124146e-14,184.656144 0.19799802,181.936354 0.594,178.050881 C3.76201584,142.498809 9.00896337,110.152737 16.335,81.011694 C17.9190079,74.9892118 20.5424817,70.763824 24.2055,68.3354038 C27.8685183,65.9069835 33.7589594,64.6927916 41.877,64.6927916 C50.3910426,64.6927916 54.648,68.092529 54.648,74.8921056 C54.648,75.8634737 54.450002,77.7090454 54.054,80.4288761 C45.1439554,122.003431 39.7980089,156.875022 38.016,185.044697 C37.619998,191.261453 35.7390168,195.632543 32.373,198.158101 C29.0069832,200.683658 23.7600356,201.946417 16.632,201.946417 Z" id="Path" fill="#7B3BB9"></path>
                        </g>
                    </g>
                    <g id="Group-3" transform="translate(305.894531, 46.167482)" fill="#FFFFFF">
                        <g id="Group-6" transform="translate(0.000000, 0.000000)">
                            <path d="M20.493,201.946417 C12.9689624,201.946417 7.67251535,198.061003 4.6035,190.290058 C1.53448466,182.519114 0,170.085788 0,152.98971 C0,127.734139 3.66296337,103.741707 10.989,81.011694 C12.7710089,75.3777591 15.6914797,71.2495066 19.7505,68.6268128 C23.8095203,66.0041189 29.5019634,64.6927916 36.828,64.6927916 C40.7880198,64.6927916 43.5599921,65.1784684 45.144,66.1498365 C46.7280079,67.1212046 47.52,68.9667763 47.52,71.686607 C47.52,74.7949849 46.0350149,81.7887302 43.065,92.6680529 C41.0849901,100.438998 39.5010059,107.189905 38.313,112.920976 C37.1249941,118.652048 36.135004,125.791497 35.343,134.339536 C40.6890267,119.186194 47.0744629,106.364327 54.4995,95.8735516 C61.9245371,85.3827762 69.5474609,77.5633803 77.3685,72.4151294 C85.1895391,67.2668785 92.5649653,64.6927916 99.495,64.6927916 C106.425035,64.6927916 111.325486,66.2469573 114.1965,69.3553352 C117.067514,72.4637131 118.503,77.2233454 118.503,83.6343748 C118.503,89.8511306 116.622019,101.118831 112.86,117.437815 C111.275992,124.431666 110.187003,129.676975 109.593,133.1739 C119.49305,109.278245 130.48194,91.8910167 142.56,81.011694 C154.63806,70.1323714 165.923948,64.6927916 176.418,64.6927916 C189.288064,64.6927916 195.723,71.0065895 195.723,83.6343748 C195.723,91.2110459 193.545022,104.907131 189.189,124.72304 C185.426981,141.624845 183.546,152.79541 183.546,158.235071 C183.546,166.006016 186.416971,169.89143 192.159,169.89143 C196.11902,169.89143 200.821473,167.511614 206.2665,162.75191 C211.711527,157.992207 218.987954,150.269946 228.096,139.584897 C230.472012,136.865067 233.144985,135.505172 236.115,135.505172 C238.689013,135.505172 240.718493,136.670796 242.2035,139.002079 C243.688507,141.333363 244.431,144.538829 244.431,148.618575 C244.431,156.38952 242.550019,162.411912 238.788,166.685932 C230.273957,176.982433 221.116549,185.433209 211.3155,192.038512 C201.514451,198.643815 190.377062,201.946417 177.903,201.946417 C167.80495,201.946417 160.182026,199.080924 155.034,193.349852 C149.885974,187.618781 147.312,179.313708 147.312,168.434385 C147.312,162.994724 148.697986,153.281189 151.47,139.293488 C154.044013,127.05425 155.331,118.603475 155.331,113.940908 C155.331,110.83253 154.242011,109.278364 152.064,109.278364 C149.489987,109.278364 145.827024,112.532399 141.075,119.040565 C136.322976,125.548731 131.571024,134.14521 126.819,144.830259 C122.066976,155.515308 118.206015,166.783009 115.236,178.633699 C113.057989,187.958833 110.533514,194.175496 107.6625,197.283874 C104.791486,200.392252 100.188032,201.946417 93.852,201.946417 C87.3179673,201.946417 82.4175163,198.886654 79.1505,192.767035 C75.8834837,186.647416 74.25,179.216561 74.25,170.474248 C74.25,163.091851 75.2399901,152.406962 77.22,138.419261 C78.8040079,125.98575 79.596,117.82638 79.596,113.940908 C79.596,110.83253 78.5070109,109.278364 76.329,109.278364 C73.3589851,109.278364 69.5970228,112.775237 65.043,119.769087 C60.4889772,126.762938 56.0835213,135.69939 51.8265,146.578713 C47.5694787,157.458035 44.1540129,168.142924 41.58,178.633699 C39.4019891,187.76456 36.8775144,193.932654 34.0065,197.138169 C31.1354856,200.343684 26.6310307,201.946417 20.493,201.946417 Z" id="Path"></path>
                            <path d="M262.182462,45.4597995 C253.86642,45.4597995 247.629482,43.5656602 243.471462,39.7773246 C239.313441,35.988989 237.234462,30.6951123 237.234462,23.8955357 C237.234462,17.095959 239.956934,11.4135409 245.401962,6.84811083 C250.846989,2.28268078 257.628421,2.84217094e-14 265.746462,2.84217094e-14 C273.072498,2.84217094e-14 279.012439,1.74843634 283.566462,5.24536148 C288.120484,8.74228663 290.397462,13.6961896 290.397462,20.107219 C290.397462,27.8781638 287.823487,34.0462587 282.675462,38.6116887 C277.527436,43.1771187 270.696504,45.4597995 262.182462,45.4597995 Z" id="Path-Copy"></path>
                            <path d="M233.670462,201.946417 C227.33443,201.946417 222.978473,200.683658 220.602462,198.158101 C218.22645,195.632543 217.038462,191.649994 217.038462,186.210333 C217.038462,184.656144 217.23646,181.936354 217.632462,178.050881 C220.800477,142.498809 226.047425,110.152737 233.373462,81.011694 C234.957469,74.9892118 237.580943,70.763824 241.243962,68.3354038 C244.90698,65.9069835 250.797421,64.6927916 258.915462,64.6927916 C267.429504,64.6927916 271.686462,68.092529 271.686462,74.8921056 C271.686462,75.8634737 271.488464,77.7090454 271.092462,80.4288761 C262.182417,122.003431 256.83647,156.875022 255.054462,185.044697 C254.65846,191.261453 252.777478,195.632543 249.411462,198.158101 C246.045445,200.683658 240.798497,201.946417 233.670462,201.946417 Z" id="Path-Copy-2"></path>
                        </g>
                    </g>
                    <g id="Group-2" transform="translate(595.546875, 46.167482)" fill="#260449">
                        <g id="Group-10">
                            <g id="Group-12" transform="translate(-0.000000, 0.000000)">
                                <path d="M50.6270769,45.4597995 C42.3110353,45.4597995 36.0740977,43.5656602 31.9160769,39.7773246 C27.7580561,35.988989 25.6790769,30.6951123 25.6790769,23.8955357 C25.6790769,17.095959 28.4015497,11.4135409 33.8465769,6.84811083 C39.2916041,2.28268078 46.0730363,-1.66977543e-13 54.1910769,-1.66977543e-13 C61.5171136,-1.66977543e-13 67.4570542,1.74843634 72.0110769,5.24536148 C76.5650997,8.74228663 78.8420769,13.6961896 78.8420769,20.107219 C78.8420769,27.8781638 76.2681027,34.0462587 71.1200769,38.6116887 C65.9720512,43.1771187 59.1411195,45.4597995 50.6270769,45.4597995 Z" id="Path"></path>
                                <path d="M36.828,201.946417 C23.9579357,201.946417 14.6025292,197.478191 8.7615,188.541604 C2.92047079,179.605018 -3.55271368e-14,167.754505 -3.55271368e-14,152.98971 C-3.55271368e-14,144.247397 1.13848862,133.028264 3.4155,119.331974 C5.69251139,105.635684 8.61298218,92.8623848 12.177,81.011694 C13.9590089,74.7949382 16.3349852,70.5209827 19.305,68.1896993 C22.2750149,65.8584159 27.0269673,64.6927916 33.561,64.6927916 C43.6590505,64.6927916 48.708,67.9953936 48.708,74.6006967 C48.708,79.4575371 46.8270188,90.725238 43.065,108.404137 C38.3129762,129.774235 35.937,144.247403 35.937,151.824074 C35.937,157.652283 36.7289921,162.120509 38.313,165.228887 C39.8970079,168.337265 42.5699812,169.89143 46.332,169.89143 C49.8960178,169.89143 54.3509733,167.463046 59.697,162.606206 C65.0430267,157.749366 72.1709555,150.075673 81.081,139.584897 C83.4570119,136.865067 86.1299852,135.505172 89.1,135.505172 C91.6740129,135.505172 93.7034926,136.670796 95.1885,139.002079 C96.6735074,141.333363 97.416,144.538829 97.416,148.618575 C97.416,156.38952 95.5350188,162.411912 91.773,166.685932 C72.170902,190.19304 53.8560851,201.946417 36.828,201.946417 Z" id="Path"></path>
                            </g>
                        </g>
                    </g>
                </g>
                <g id="Group-5">
                    <ellipse id="Oval" fill="#F3B426" cx="228.717082" cy="224.252654" rx="228.717082" ry="224.252654"></ellipse>
                    <path d="M-5.68434189e-14,235.465287 L228.717082,235.465287 L228.717082,448.505308 L100,448.505308 C44.771525,448.505308 -3.58690266e-14,403.733783 -4.26325641e-14,348.505308 L-5.68434189e-14,235.465287 Z" id="Rectangle" fill="#F3B426"></path>
                    <path d="M100.185307,325.166348 C92.7929565,325.166348 87.5892086,321.357424 84.5739075,313.739461 C81.5586065,306.121499 80.0509786,293.932941 80.0509786,277.173424 C80.0509786,252.415045 83.6498323,228.894938 90.8476477,206.612397 C92.5984676,201.089375 95.4678239,197.042393 99.4558027,194.47133 C103.443781,191.900268 109.036595,190.614756 116.23441,190.614756 C120.125121,190.614756 122.848578,191.090871 124.404862,192.043117 C125.961147,192.995362 126.739277,194.804601 126.739277,197.470888 C126.739277,200.518073 125.280282,207.374137 122.362249,218.039284 C120.416894,225.657247 118.860633,232.275253 117.693419,237.8935 C116.526206,243.511748 115.553543,250.510646 114.775401,258.890405 C120.027861,244.035378 126.301538,231.465928 133.596621,221.181678 C140.891704,210.897429 148.381211,203.231969 156.065365,198.185068 C163.749519,193.138168 170.99586,190.614756 177.804604,190.614756 C184.613348,190.614756 189.428031,192.138326 192.248796,195.185511 C195.069562,198.232696 196.479923,202.898628 196.479923,209.183447 C196.479923,215.277817 194.631863,226.323697 190.935688,242.321419 C189.379403,249.177585 188.309474,254.319633 187.725867,257.747716 C197.452645,234.322481 208.249206,217.277545 220.115874,206.612397 C231.982543,195.94725 243.070903,190.614756 253.381287,190.614756 C266.026098,190.614756 272.348408,196.804258 272.348408,209.183447 C272.348408,216.610961 270.208549,230.037418 265.928767,249.463223 C262.232592,266.032292 260.384532,276.982949 260.384532,282.315523 C260.384532,289.933485 263.205255,293.74241 268.846786,293.74241 C272.737497,293.74241 277.357647,291.409443 282.707375,286.743441 C288.057102,282.077439 295.206176,274.507202 304.154812,264.032504 C306.489238,261.366217 309.115429,260.033093 312.033462,260.033093 C314.562424,260.033093 316.556384,261.175771 318.0154,263.461159 C319.474417,265.746548 320.203914,268.888911 320.203914,272.888341 C320.203914,280.506304 318.355854,286.410136 314.659679,290.600016 C306.29465,300.693816 297.297516,308.978226 287.668006,315.453495 C278.038497,321.928763 267.096036,325.166348 254.840296,325.166348 C244.918983,325.166348 237.429477,322.357267 232.371553,316.739019 C227.313628,311.120772 224.784704,302.979196 224.784704,292.314049 C224.784704,286.981475 226.146433,277.459164 228.86993,263.746832 C231.398892,251.74854 232.663355,243.46413 232.663355,238.893353 C232.663355,235.846168 231.593425,234.322598 229.453534,234.322598 C226.924572,234.322598 223.325718,237.512572 218.656865,243.892616 C213.988012,250.272659 209.319229,258.699904 204.650375,269.174603 C199.981522,279.649301 196.188136,290.695182 193.270103,302.312575 C191.130212,311.45413 188.649921,317.548409 185.829155,320.595594 C183.00839,323.642779 178.485506,325.166348 172.260368,325.166348 C165.840695,325.166348 161.026013,322.166821 157.816176,316.167675 C154.606339,310.168529 153.001445,302.883962 153.001445,294.313754 C153.001445,287.076689 153.974108,276.602148 155.919464,262.889815 C157.475748,250.701075 158.253879,242.702334 158.253879,238.893353 C158.253879,235.846168 157.183949,234.322598 155.044058,234.322598 C152.126025,234.322598 148.429905,237.75063 143.955587,244.606796 C139.48127,251.462963 135.152919,260.223488 130.970404,270.888636 C126.78789,281.553784 123.432202,292.028325 120.90324,302.312575 C118.763349,311.263681 116.283058,317.310348 113.462292,320.452758 C110.641527,323.595167 106.215909,325.166348 100.185307,325.166348 Z" id="Path" fill="#260449" fill-rule="nonzero"></path>
                    <path d="M347.036645,168.189491 C338.092357,168.189491 331.384241,166.320737 326.912097,162.583174 C322.439953,158.845611 320.203914,153.622685 320.203914,146.914239 C320.203914,140.205792 323.13206,134.599532 328.988439,130.09529 C334.844818,125.591047 342.138563,123.33896 350.869892,123.33896 C358.749384,123.33896 365.138065,125.063963 370.036128,128.514021 C374.93419,131.964079 377.383185,136.851588 377.383185,143.176694 C377.383185,150.84349 374.614756,156.928918 369.077816,161.433161 C363.540876,165.937403 356.193892,168.189491 347.036645,168.189491 Z" id="Path" fill="#260449" fill-rule="nonzero"></path>
                    <path d="M314.734593,325.166348 C308.105079,325.166348 303.547357,323.928448 301.061289,321.45261 C298.575221,318.976772 297.332206,315.072625 297.332206,309.740051 C297.332206,308.216459 297.539375,305.550212 297.95372,301.74123 C301.268477,266.889051 306.758461,235.179757 314.423836,206.612397 C316.081214,200.708476 318.826206,196.566271 322.658894,194.185658 C326.491582,191.805045 332.654865,190.614756 341.14893,190.614756 C350.057339,190.614756 354.511477,193.947565 354.511477,200.613282 C354.511477,201.565527 354.304307,203.374766 353.889963,206.041053 C344.567209,246.797153 338.973641,280.982248 337.10909,308.597362 C336.694745,314.691733 334.726638,318.976772 331.204709,321.45261 C327.68278,323.928448 322.192796,325.166348 314.734593,325.166348 Z" id="Path" fill="#260449" fill-rule="nonzero"></path>
                </g>
            </g>
        </g>
        <g id="Group-8-Copy-3" transform="translate(1684.000000, 1311.309353)">
            <g id="Group-7">
                <g id="Group-4" transform="translate(546.000000, 100.374101)" fill-rule="nonzero">
                    <path d="M72.468,248.571853 C58.8059317,248.571853 46.4805549,245.269251 35.4915,238.663948 C24.5024451,232.058644 15.8400317,222.490812 9.504,209.960164 C3.16796832,197.429515 -4.26325641e-14,182.616374 -4.26325641e-14,165.520296 C-4.26325641e-14,135.990706 6.43493565,108.647104 19.305,83.4886703 C32.1750643,58.3302366 51.1828743,38.1260833 76.329,22.8756043 C101.475126,7.62512516 131.669824,4.26325641e-14 166.914,4.26325641e-14 C176.022046,4.26325641e-14 185.773448,0.679947467 196.1685,2.0398628 C206.563552,3.39977813 216.017957,5.43962053 224.532,8.1594512 C230.076028,9.71364015 232.848,13.5990542 232.848,19.8158101 C232.848,24.8669241 230.917519,29.6265564 227.0565,34.0948496 C223.195481,38.5631429 218.691026,40.797256 213.543,40.797256 C211.958992,40.797256 210.771004,40.7001206 209.979,40.505847 C199.682949,38.1745636 190.872037,36.4746949 183.546,35.40619 C176.219963,34.3376851 168.498041,33.8034407 160.38,33.8034407 C135.233874,33.8034407 113.850088,39.7772649 96.228,51.7250924 C78.6059119,63.67292 65.4390436,79.4574147 56.727,99.0790503 C48.0149564,118.700686 43.659,139.876193 43.659,162.606206 C43.659,179.119464 46.9754668,191.892762 53.6085,200.926486 C60.2415332,209.960209 68.9039465,214.477003 79.596,214.477003 C91.6740604,214.477003 102.266954,209.620235 111.375,199.906554 C120.483046,190.192873 128.798962,174.456946 136.323,152.698301 C143.847038,130.939656 151.271963,101.410509 158.598,64.1099737 C159.786006,58.6703124 162.161982,54.979169 165.726,53.0364328 C169.290018,51.0936966 174.04197,50.1223431 179.982,50.1223431 C194.04007,50.1223431 201.069,54.5905693 201.069,63.5271558 C201.069,65.0813447 200.772003,67.0240518 200.178,69.3553352 C195.029974,88.1998762 190.327521,109.035409 186.0705,131.86256 C181.813479,154.68971 179.685,172.02837 179.685,183.879061 C179.685,194.369836 181.268984,201.994962 184.437,206.754665 C187.605016,211.514369 192.455967,213.894185 198.99,213.894185 C205.326032,213.894185 211.364971,211.805775 217.107,207.628892 C222.849029,203.452009 230.075956,196.312561 238.788,186.210333 C241.164012,183.490502 243.836985,182.130607 246.807,182.130607 C249.381013,182.130607 251.410493,183.296231 252.8955,185.627515 C254.380507,187.958798 255.123,191.164265 255.123,195.244011 C255.123,202.820682 253.242019,208.843074 249.48,213.311367 C239.777951,224.773511 230.274047,233.515692 220.968,239.538174 C211.661953,245.560657 200.277067,248.571853 186.813,248.571853 C172.952931,248.571853 161.766043,244.637871 153.252,236.769789 C144.737957,228.901708 139.392011,217.77971 137.214,203.403462 C122.561927,233.515873 100.980143,248.571853 72.468,248.571853 Z" id="Path" fill="#F3B426"></path>
                    <g id="Group" transform="translate(227.390625, 36.185324)" fill="#F3B426">
                        <g id="Group-11" transform="translate(-0.000000, 0.000000)">
                            <path d="M45.144,45.4597995 C36.8279584,45.4597995 30.5910208,43.5656602 26.433,39.7773246 C22.2749792,35.988989 20.196,30.6951123 20.196,23.8955357 C20.196,17.095959 22.9184728,11.4135409 28.3635,6.84811083 C33.8085272,2.28268078 40.5899594,1.17239551e-13 48.708,1.17239551e-13 C56.0340366,1.17239551e-13 61.9739772,1.74843634 66.528,5.24536148 C71.0820228,8.74228663 73.359,13.6961896 73.359,20.107219 C73.359,27.8781638 70.7850257,34.0462587 65.637,38.6116887 C60.4889743,43.1771187 53.6580426,45.4597995 45.144,45.4597995 Z" id="Path"></path>
                            <path d="M16.632,201.946417 C10.2959683,201.946417 5.94001188,200.683658 3.564,198.158101 C1.18798812,195.632543 -8.17124146e-14,191.649994 -8.17124146e-14,186.210333 C-8.17124146e-14,184.656144 0.19799802,181.936354 0.594,178.050881 C3.76201584,142.498809 9.00896337,110.152737 16.335,81.011694 C17.9190079,74.9892118 20.5424817,70.763824 24.2055,68.3354038 C27.8685183,65.9069835 33.7589594,64.6927916 41.877,64.6927916 C50.3910426,64.6927916 54.648,68.092529 54.648,74.8921056 C54.648,75.8634737 54.450002,77.7090454 54.054,80.4288761 C45.1439554,122.003431 39.7980089,156.875022 38.016,185.044697 C37.619998,191.261453 35.7390168,195.632543 32.373,198.158101 C29.0069832,200.683658 23.7600356,201.946417 16.632,201.946417 Z" id="Path"></path>
                        </g>
                    </g>
                    <g id="Group-3" transform="translate(305.894531, 46.167482)" fill="#FFFFFF">
                        <g id="Group-6" transform="translate(0.000000, 0.000000)">
                            <path d="M20.493,201.946417 C12.9689624,201.946417 7.67251535,198.061003 4.6035,190.290058 C1.53448466,182.519114 0,170.085788 0,152.98971 C0,127.734139 3.66296337,103.741707 10.989,81.011694 C12.7710089,75.3777591 15.6914797,71.2495066 19.7505,68.6268128 C23.8095203,66.0041189 29.5019634,64.6927916 36.828,64.6927916 C40.7880198,64.6927916 43.5599921,65.1784684 45.144,66.1498365 C46.7280079,67.1212046 47.52,68.9667763 47.52,71.686607 C47.52,74.7949849 46.0350149,81.7887302 43.065,92.6680529 C41.0849901,100.438998 39.5010059,107.189905 38.313,112.920976 C37.1249941,118.652048 36.135004,125.791497 35.343,134.339536 C40.6890267,119.186194 47.0744629,106.364327 54.4995,95.8735516 C61.9245371,85.3827762 69.5474609,77.5633803 77.3685,72.4151294 C85.1895391,67.2668785 92.5649653,64.6927916 99.495,64.6927916 C106.425035,64.6927916 111.325486,66.2469573 114.1965,69.3553352 C117.067514,72.4637131 118.503,77.2233454 118.503,83.6343748 C118.503,89.8511306 116.622019,101.118831 112.86,117.437815 C111.275992,124.431666 110.187003,129.676975 109.593,133.1739 C119.49305,109.278245 130.48194,91.8910167 142.56,81.011694 C154.63806,70.1323714 165.923948,64.6927916 176.418,64.6927916 C189.288064,64.6927916 195.723,71.0065895 195.723,83.6343748 C195.723,91.2110459 193.545022,104.907131 189.189,124.72304 C185.426981,141.624845 183.546,152.79541 183.546,158.235071 C183.546,166.006016 186.416971,169.89143 192.159,169.89143 C196.11902,169.89143 200.821473,167.511614 206.2665,162.75191 C211.711527,157.992207 218.987954,150.269946 228.096,139.584897 C230.472012,136.865067 233.144985,135.505172 236.115,135.505172 C238.689013,135.505172 240.718493,136.670796 242.2035,139.002079 C243.688507,141.333363 244.431,144.538829 244.431,148.618575 C244.431,156.38952 242.550019,162.411912 238.788,166.685932 C230.273957,176.982433 221.116549,185.433209 211.3155,192.038512 C201.514451,198.643815 190.377062,201.946417 177.903,201.946417 C167.80495,201.946417 160.182026,199.080924 155.034,193.349852 C149.885974,187.618781 147.312,179.313708 147.312,168.434385 C147.312,162.994724 148.697986,153.281189 151.47,139.293488 C154.044013,127.05425 155.331,118.603475 155.331,113.940908 C155.331,110.83253 154.242011,109.278364 152.064,109.278364 C149.489987,109.278364 145.827024,112.532399 141.075,119.040565 C136.322976,125.548731 131.571024,134.14521 126.819,144.830259 C122.066976,155.515308 118.206015,166.783009 115.236,178.633699 C113.057989,187.958833 110.533514,194.175496 107.6625,197.283874 C104.791486,200.392252 100.188032,201.946417 93.852,201.946417 C87.3179673,201.946417 82.4175163,198.886654 79.1505,192.767035 C75.8834837,186.647416 74.25,179.216561 74.25,170.474248 C74.25,163.091851 75.2399901,152.406962 77.22,138.419261 C78.8040079,125.98575 79.596,117.82638 79.596,113.940908 C79.596,110.83253 78.5070109,109.278364 76.329,109.278364 C73.3589851,109.278364 69.5970228,112.775237 65.043,119.769087 C60.4889772,126.762938 56.0835213,135.69939 51.8265,146.578713 C47.5694787,157.458035 44.1540129,168.142924 41.58,178.633699 C39.4019891,187.76456 36.8775144,193.932654 34.0065,197.138169 C31.1354856,200.343684 26.6310307,201.946417 20.493,201.946417 Z" id="Path"></path>
                            <path d="M262.182462,45.4597995 C253.86642,45.4597995 247.629482,43.5656602 243.471462,39.7773246 C239.313441,35.988989 237.234462,30.6951123 237.234462,23.8955357 C237.234462,17.095959 239.956934,11.4135409 245.401962,6.84811083 C250.846989,2.28268078 257.628421,2.84217094e-14 265.746462,2.84217094e-14 C273.072498,2.84217094e-14 279.012439,1.74843634 283.566462,5.24536148 C288.120484,8.74228663 290.397462,13.6961896 290.397462,20.107219 C290.397462,27.8781638 287.823487,34.0462587 282.675462,38.6116887 C277.527436,43.1771187 270.696504,45.4597995 262.182462,45.4597995 Z" id="Path-Copy"></path>
                            <path d="M233.670462,201.946417 C227.33443,201.946417 222.978473,200.683658 220.602462,198.158101 C218.22645,195.632543 217.038462,191.649994 217.038462,186.210333 C217.038462,184.656144 217.23646,181.936354 217.632462,178.050881 C220.800477,142.498809 226.047425,110.152737 233.373462,81.011694 C234.957469,74.9892118 237.580943,70.763824 241.243962,68.3354038 C244.90698,65.9069835 250.797421,64.6927916 258.915462,64.6927916 C267.429504,64.6927916 271.686462,68.092529 271.686462,74.8921056 C271.686462,75.8634737 271.488464,77.7090454 271.092462,80.4288761 C262.182417,122.003431 256.83647,156.875022 255.054462,185.044697 C254.65846,191.261453 252.777478,195.632543 249.411462,198.158101 C246.045445,200.683658 240.798497,201.946417 233.670462,201.946417 Z" id="Path-Copy-2"></path>
                        </g>
                    </g>
                    <g id="Group-2" transform="translate(595.546875, 46.167482)" fill="#F75643">
                        <g id="Group-10">
                            <g id="Group-12" transform="translate(-0.000000, 0.000000)">
                                <path d="M50.6270769,45.4597995 C42.3110353,45.4597995 36.0740977,43.5656602 31.9160769,39.7773246 C27.7580561,35.988989 25.6790769,30.6951123 25.6790769,23.8955357 C25.6790769,17.095959 28.4015497,11.4135409 33.8465769,6.84811083 C39.2916041,2.28268078 46.0730363,-1.66977543e-13 54.1910769,-1.66977543e-13 C61.5171136,-1.66977543e-13 67.4570542,1.74843634 72.0110769,5.24536148 C76.5650997,8.74228663 78.8420769,13.6961896 78.8420769,20.107219 C78.8420769,27.8781638 76.2681027,34.0462587 71.1200769,38.6116887 C65.9720512,43.1771187 59.1411195,45.4597995 50.6270769,45.4597995 Z" id="Path"></path>
                                <path d="M36.828,201.946417 C23.9579357,201.946417 14.6025292,197.478191 8.7615,188.541604 C2.92047079,179.605018 -3.55271368e-14,167.754505 -3.55271368e-14,152.98971 C-3.55271368e-14,144.247397 1.13848862,133.028264 3.4155,119.331974 C5.69251139,105.635684 8.61298218,92.8623848 12.177,81.011694 C13.9590089,74.7949382 16.3349852,70.5209827 19.305,68.1896993 C22.2750149,65.8584159 27.0269673,64.6927916 33.561,64.6927916 C43.6590505,64.6927916 48.708,67.9953936 48.708,74.6006967 C48.708,79.4575371 46.8270188,90.725238 43.065,108.404137 C38.3129762,129.774235 35.937,144.247403 35.937,151.824074 C35.937,157.652283 36.7289921,162.120509 38.313,165.228887 C39.8970079,168.337265 42.5699812,169.89143 46.332,169.89143 C49.8960178,169.89143 54.3509733,167.463046 59.697,162.606206 C65.0430267,157.749366 72.1709555,150.075673 81.081,139.584897 C83.4570119,136.865067 86.1299852,135.505172 89.1,135.505172 C91.6740129,135.505172 93.7034926,136.670796 95.1885,139.002079 C96.6735074,141.333363 97.416,144.538829 97.416,148.618575 C97.416,156.38952 95.5350188,162.411912 91.773,166.685932 C72.170902,190.19304 53.8560851,201.946417 36.828,201.946417 Z" id="Path"></path>
                            </g>
                        </g>
                    </g>
                </g>
                <g id="Group-5">
                    <ellipse id="Oval" fill="#7B3BB9" cx="228.717082" cy="224.252654" rx="228.717082" ry="224.252654"></ellipse>
                    <path d="M-5.68434189e-14,235.465287 L228.717082,235.465287 L228.717082,448.505308 L100,448.505308 C44.771525,448.505308 -3.58690266e-14,403.733783 -4.26325641e-14,348.505308 L-5.68434189e-14,235.465287 Z" id="Rectangle" fill="#7B3BB9"></path>
                    <path d="M100.185307,325.166348 C92.7929565,325.166348 87.5892086,321.357424 84.5739075,313.739461 C81.5586065,306.121499 80.0509786,293.932941 80.0509786,277.173424 C80.0509786,252.415045 83.6498323,228.894938 90.8476477,206.612397 C92.5984676,201.089375 95.4678239,197.042393 99.4558027,194.47133 C103.443781,191.900268 109.036595,190.614756 116.23441,190.614756 C120.125121,190.614756 122.848578,191.090871 124.404862,192.043117 C125.961147,192.995362 126.739277,194.804601 126.739277,197.470888 C126.739277,200.518073 125.280282,207.374137 122.362249,218.039284 C120.416894,225.657247 118.860633,232.275253 117.693419,237.8935 C116.526206,243.511748 115.553543,250.510646 114.775401,258.890405 C120.027861,244.035378 126.301538,231.465928 133.596621,221.181678 C140.891704,210.897429 148.381211,203.231969 156.065365,198.185068 C163.749519,193.138168 170.99586,190.614756 177.804604,190.614756 C184.613348,190.614756 189.428031,192.138326 192.248796,195.185511 C195.069562,198.232696 196.479923,202.898628 196.479923,209.183447 C196.479923,215.277817 194.631863,226.323697 190.935688,242.321419 C189.379403,249.177585 188.309474,254.319633 187.725867,257.747716 C197.452645,234.322481 208.249206,217.277545 220.115874,206.612397 C231.982543,195.94725 243.070903,190.614756 253.381287,190.614756 C266.026098,190.614756 272.348408,196.804258 272.348408,209.183447 C272.348408,216.610961 270.208549,230.037418 265.928767,249.463223 C262.232592,266.032292 260.384532,276.982949 260.384532,282.315523 C260.384532,289.933485 263.205255,293.74241 268.846786,293.74241 C272.737497,293.74241 277.357647,291.409443 282.707375,286.743441 C288.057102,282.077439 295.206176,274.507202 304.154812,264.032504 C306.489238,261.366217 309.115429,260.033093 312.033462,260.033093 C314.562424,260.033093 316.556384,261.175771 318.0154,263.461159 C319.474417,265.746548 320.203914,268.888911 320.203914,272.888341 C320.203914,280.506304 318.355854,286.410136 314.659679,290.600016 C306.29465,300.693816 297.297516,308.978226 287.668006,315.453495 C278.038497,321.928763 267.096036,325.166348 254.840296,325.166348 C244.918983,325.166348 237.429477,322.357267 232.371553,316.739019 C227.313628,311.120772 224.784704,302.979196 224.784704,292.314049 C224.784704,286.981475 226.146433,277.459164 228.86993,263.746832 C231.398892,251.74854 232.663355,243.46413 232.663355,238.893353 C232.663355,235.846168 231.593425,234.322598 229.453534,234.322598 C226.924572,234.322598 223.325718,237.512572 218.656865,243.892616 C213.988012,250.272659 209.319229,258.699904 204.650375,269.174603 C199.981522,279.649301 196.188136,290.695182 193.270103,302.312575 C191.130212,311.45413 188.649921,317.548409 185.829155,320.595594 C183.00839,323.642779 178.485506,325.166348 172.260368,325.166348 C165.840695,325.166348 161.026013,322.166821 157.816176,316.167675 C154.606339,310.168529 153.001445,302.883962 153.001445,294.313754 C153.001445,287.076689 153.974108,276.602148 155.919464,262.889815 C157.475748,250.701075 158.253879,242.702334 158.253879,238.893353 C158.253879,235.846168 157.183949,234.322598 155.044058,234.322598 C152.126025,234.322598 148.429905,237.75063 143.955587,244.606796 C139.48127,251.462963 135.152919,260.223488 130.970404,270.888636 C126.78789,281.553784 123.432202,292.028325 120.90324,302.312575 C118.763349,311.263681 116.283058,317.310348 113.462292,320.452758 C110.641527,323.595167 106.215909,325.166348 100.185307,325.166348 Z" id="Path" fill="#F75643" fill-rule="nonzero"></path>
                    <path d="M347.036645,168.189491 C338.092357,168.189491 331.384241,166.320737 326.912097,162.583174 C322.439953,158.845611 320.203914,153.622685 320.203914,146.914239 C320.203914,140.205792 323.13206,134.599532 328.988439,130.09529 C334.844818,125.591047 342.138563,123.33896 350.869892,123.33896 C358.749384,123.33896 365.138065,125.063963 370.036128,128.514021 C374.93419,131.964079 377.383185,136.851588 377.383185,143.176694 C377.383185,150.84349 374.614756,156.928918 369.077816,161.433161 C363.540876,165.937403 356.193892,168.189491 347.036645,168.189491 Z" id="Path" fill="#F75643" fill-rule="nonzero"></path>
                    <path d="M314.734593,325.166348 C308.105079,325.166348 303.547357,323.928448 301.061289,321.45261 C298.575221,318.976772 297.332206,315.072625 297.332206,309.740051 C297.332206,308.216459 297.539375,305.550212 297.95372,301.74123 C301.268477,266.889051 306.758461,235.179757 314.423836,206.612397 C316.081214,200.708476 318.826206,196.566271 322.658894,194.185658 C326.491582,191.805045 332.654865,190.614756 341.14893,190.614756 C350.057339,190.614756 354.511477,193.947565 354.511477,200.613282 C354.511477,201.565527 354.304307,203.374766 353.889963,206.041053 C344.567209,246.797153 338.973641,280.982248 337.10909,308.597362 C336.694745,314.691733 334.726638,318.976772 331.204709,321.45261 C327.68278,323.928448 322.192796,325.166348 314.734593,325.166348 Z" id="Path" fill="#F75643" fill-rule="nonzero"></path>
                </g>
            </g>
        </g>
    </g>
</svg>